<svg width="829" height="792" viewBox="0 0 829 792" fill="none" xmlns="http://www.w3.org/2000/svg">
<path fill-rule="evenodd" clip-rule="evenodd" d="M552.531 300.484C552.531 261.694 546.717 228.141 535.091 199.825L615.77 119.145C625.586 133.403 634.044 149.018 641.143 165.99C657.048 203.444 665 248.275 665 300.484C665 351.557 657.048 396.105 641.143 434.127C634.505 449.758 626.68 464.351 617.668 477.906L536.134 396.371C547.065 368.829 552.531 336.867 552.531 300.484ZM518.298 430.506C512.542 439.11 506.06 447.126 498.852 454.556C463.634 490.875 409.956 509.035 337.816 509.035H296.066C285.842 508.467 277.605 507.9 271.357 507.332V319.709H164V587.348C191.265 593.59 219.951 597.563 250.056 599.265C280.162 601.535 307.143 602.67 331 602.67C380.986 602.67 426.429 596.711 467.327 584.794C508.793 572.309 544.01 553.582 572.98 528.613C580.775 521.873 588.096 514.719 594.942 507.149L518.298 430.506ZM572.98 72.3545C579.845 78.0264 586.343 84.0663 592.472 90.4741L516.817 166.129C511.904 159.1 506.483 152.527 500.556 146.411C465.906 110.66 412.228 92.784 339.52 92.784C307.711 92.784 284.99 93.6352 271.357 95.3377V282.961H164V14.4709C191.265 8.22857 220.235 4.25617 250.908 2.5537C281.582 0.851235 308.847 0 332.704 0C382.122 0 427.281 5.95861 468.179 17.8758C509.077 29.2255 544.01 47.3851 572.98 72.3545Z" fill="#4992CD"/>
<path d="M20.9 761.6C21.6333 761.667 22.6 761.733 23.8 761.8C25 761.8 26.6333 761.8 28.7 761.8C37.1667 761.8 43.4667 759.667 47.6 755.4C51.8 751.067 53.9 745.033 53.9 737.3C53.9 729.433 51.8667 723.4 47.8 719.2C43.7333 715 37.4333 712.9 28.9 712.9C25.1667 712.9 22.5 713 20.9 713.2V761.6ZM67.1 737.3C67.1 743.3 66.1667 748.533 64.3 753C62.4333 757.4 59.7667 761.1 56.3 764.1C52.9 767.033 48.7667 769.233 43.9 770.7C39.1 772.1 33.7667 772.8 27.9 772.8C25.1 772.8 21.9333 772.667 18.4 772.4C14.8667 772.2 11.5 771.733 8.3 771V703.7C11.5 702.967 14.9 702.5 18.5 702.3C22.1 702.1 25.3 702 28.1 702C33.9 702 39.2 702.7 44 704.1C48.8 705.433 52.9 707.567 56.3 710.5C59.7667 713.367 62.4333 717.033 64.3 721.5C66.1667 725.9 67.1 731.167 67.1 737.3ZM80.4086 772V702.7H124.909V713.4H93.0086V730.5H121.409V741H93.0086V761.3H127.309V772H80.4086ZM159.452 772.8C155.786 772.8 152.086 772.667 148.352 772.4C144.619 772.2 141.352 771.733 138.552 771V703.7C140.019 703.433 141.586 703.2 143.252 703C144.919 702.733 146.619 702.533 148.352 702.4C150.086 702.267 151.786 702.167 153.452 702.1C155.186 702.033 156.819 702 158.352 702C162.552 702 166.452 702.333 170.052 703C173.652 703.6 176.752 704.633 179.352 706.1C182.019 707.567 184.086 709.5 185.552 711.9C187.019 714.3 187.752 717.267 187.752 720.8C187.752 724.067 186.952 726.867 185.352 729.2C183.819 731.533 181.652 733.4 178.852 734.8C183.052 736.2 186.152 738.267 188.152 741C190.152 743.733 191.152 747.2 191.152 751.4C191.152 758.533 188.552 763.9 183.352 767.5C178.152 771.033 170.186 772.8 159.452 772.8ZM150.952 740.8V761.9C152.352 762.033 153.852 762.133 155.452 762.2C157.052 762.267 158.519 762.3 159.852 762.3C162.452 762.3 164.852 762.133 167.052 761.8C169.319 761.467 171.252 760.9 172.852 760.1C174.519 759.233 175.819 758.1 176.752 756.7C177.752 755.3 178.252 753.5 178.252 751.3C178.252 747.367 176.819 744.633 173.952 743.1C171.086 741.567 167.119 740.8 162.052 740.8H150.952ZM150.952 730.9H159.852C164.652 730.9 168.419 730.233 171.152 728.9C173.886 727.5 175.252 725.033 175.252 721.5C175.252 718.167 173.819 715.8 170.952 714.4C168.152 713 164.486 712.3 159.952 712.3C158.019 712.3 156.286 712.333 154.752 712.4C153.286 712.467 152.019 712.567 150.952 712.7V730.9ZM252.125 702.7V713.6H230.825V772H218.125V713.6H196.825V702.7H252.125ZM278.085 762.6C282.618 762.6 285.918 761.833 287.985 760.3C290.052 758.767 291.085 756.6 291.085 753.8C291.085 752.133 290.718 750.7 289.985 749.5C289.318 748.3 288.318 747.233 286.985 746.3C285.718 745.3 284.152 744.4 282.285 743.6C280.418 742.733 278.285 741.9 275.885 741.1C273.485 740.233 271.152 739.3 268.885 738.3C266.685 737.233 264.718 735.933 262.985 734.4C261.318 732.867 259.952 731.033 258.885 728.9C257.885 726.767 257.385 724.2 257.385 721.2C257.385 714.933 259.552 710.033 263.885 706.5C268.218 702.9 274.118 701.1 281.585 701.1C285.918 701.1 289.752 701.6 293.085 702.6C296.485 703.533 299.152 704.567 301.085 705.7L297.185 715.9C294.918 714.633 292.418 713.667 289.685 713C287.018 712.333 284.252 712 281.385 712C277.985 712 275.318 712.7 273.385 714.1C271.518 715.5 270.585 717.467 270.585 720C270.585 721.533 270.885 722.867 271.485 724C272.152 725.067 273.052 726.033 274.185 726.9C275.385 727.767 276.752 728.567 278.285 729.3C279.885 730.033 281.618 730.733 283.485 731.4C286.752 732.6 289.652 733.833 292.185 735.1C294.785 736.3 296.952 737.767 298.685 739.5C300.485 741.167 301.852 743.167 302.785 745.5C303.718 747.767 304.185 750.533 304.185 753.8C304.185 760.067 301.952 764.933 297.485 768.4C293.085 771.8 286.618 773.5 278.085 773.5C275.218 773.5 272.585 773.3 270.185 772.9C267.852 772.567 265.752 772.133 263.885 771.6C262.085 771.067 260.518 770.533 259.185 770C257.852 769.4 256.785 768.867 255.985 768.4L259.685 758.1C261.485 759.1 263.918 760.1 266.985 761.1C270.052 762.1 273.752 762.6 278.085 762.6ZM333.729 753.6C333.729 751.067 334.096 748.767 334.829 746.7C335.629 744.633 336.662 742.767 337.929 741.1C339.262 739.433 340.762 737.967 342.429 736.7C344.162 735.433 345.962 734.3 347.829 733.3C345.829 731.167 344.196 728.9 342.929 726.5C341.729 724.1 341.129 721.567 341.129 718.9C341.129 713.3 342.829 708.933 346.229 705.8C349.696 702.667 354.229 701.1 359.829 701.1C362.696 701.1 365.229 701.5 367.429 702.3C369.696 703.1 371.562 704.2 373.029 705.6C374.496 707 375.596 708.667 376.329 710.6C377.129 712.467 377.529 714.467 377.529 716.6C377.529 718.733 377.162 720.733 376.429 722.6C375.762 724.467 374.829 726.2 373.629 727.8C372.429 729.333 371.029 730.767 369.429 732.1C367.896 733.367 366.229 734.5 364.429 735.5L378.129 749.3C379.062 747.567 379.829 745.633 380.429 743.5C381.029 741.3 381.496 739.167 381.829 737.1L391.929 738.4C391.596 741.067 390.896 744.033 389.829 747.3C388.762 750.5 387.362 753.567 385.629 756.5C387.829 758.967 389.929 761.533 391.929 764.2C393.996 766.8 395.696 769.4 397.029 772H384.429C383.762 770.867 382.896 769.633 381.829 768.3C380.829 766.967 379.762 765.733 378.629 764.6C375.896 767.067 372.762 769.067 369.229 770.6C365.696 772.133 361.696 772.9 357.229 772.9C352.762 772.9 349.029 772.3 346.029 771.1C343.029 769.9 340.596 768.367 338.729 766.5C336.929 764.633 335.629 762.567 334.829 760.3C334.096 758.033 333.729 755.8 333.729 753.6ZM345.329 752.8C345.329 753.933 345.529 755.1 345.929 756.3C346.396 757.5 347.096 758.633 348.029 759.7C349.029 760.7 350.296 761.533 351.829 762.2C353.429 762.867 355.329 763.2 357.529 763.2C360.529 763.2 363.229 762.733 365.629 761.8C368.096 760.867 370.196 759.533 371.929 757.8L354.329 739.9C353.329 740.433 352.296 741.067 351.229 741.8C350.162 742.533 349.196 743.433 348.329 744.5C347.462 745.5 346.729 746.7 346.129 748.1C345.596 749.433 345.329 751 345.329 752.8ZM367.029 717.1C367.029 715.167 366.396 713.533 365.129 712.2C363.862 710.8 362.029 710.1 359.629 710.1C357.096 710.1 355.162 710.867 353.829 712.4C352.496 713.933 351.829 715.867 351.829 718.2C351.829 720.133 352.362 722.067 353.429 724C354.496 725.867 355.962 727.667 357.829 729.4C359.096 728.733 360.262 728 361.329 727.2C362.462 726.4 363.429 725.5 364.229 724.5C365.096 723.5 365.762 722.4 366.229 721.2C366.762 720 367.029 718.633 367.029 717.1ZM445.328 762.6C449.861 762.6 453.161 761.833 455.228 760.3C457.295 758.767 458.328 756.6 458.328 753.8C458.328 752.133 457.961 750.7 457.228 749.5C456.561 748.3 455.561 747.233 454.228 746.3C452.961 745.3 451.395 744.4 449.528 743.6C447.661 742.733 445.528 741.9 443.128 741.1C440.728 740.233 438.395 739.3 436.128 738.3C433.928 737.233 431.961 735.933 430.228 734.4C428.561 732.867 427.195 731.033 426.128 728.9C425.128 726.767 424.628 724.2 424.628 721.2C424.628 714.933 426.795 710.033 431.128 706.5C435.461 702.9 441.361 701.1 448.828 701.1C453.161 701.1 456.995 701.6 460.328 702.6C463.728 703.533 466.395 704.567 468.328 705.7L464.428 715.9C462.161 714.633 459.661 713.667 456.928 713C454.261 712.333 451.495 712 448.628 712C445.228 712 442.561 712.7 440.628 714.1C438.761 715.5 437.828 717.467 437.828 720C437.828 721.533 438.128 722.867 438.728 724C439.395 725.067 440.295 726.033 441.428 726.9C442.628 727.767 443.995 728.567 445.528 729.3C447.128 730.033 448.861 730.733 450.728 731.4C453.995 732.6 456.895 733.833 459.428 735.1C462.028 736.3 464.195 737.767 465.928 739.5C467.728 741.167 469.095 743.167 470.028 745.5C470.961 747.767 471.428 750.533 471.428 753.8C471.428 760.067 469.195 764.933 464.728 768.4C460.328 771.8 453.861 773.5 445.328 773.5C442.461 773.5 439.828 773.3 437.428 772.9C435.095 772.567 432.995 772.133 431.128 771.6C429.328 771.067 427.761 770.533 426.428 770C425.095 769.4 424.028 768.867 423.228 768.4L426.928 758.1C428.728 759.1 431.161 760.1 434.228 761.1C437.295 762.1 440.995 762.6 445.328 762.6ZM528.082 772C527.149 769.267 526.182 766.567 525.182 763.9C524.182 761.233 523.215 758.5 522.282 755.7H493.082C492.149 758.5 491.182 761.267 490.182 764C489.249 766.667 488.315 769.333 487.382 772H474.282C476.882 764.6 479.349 757.767 481.682 751.5C484.015 745.233 486.282 739.3 488.482 733.7C490.749 728.1 492.982 722.767 495.182 717.7C497.382 712.633 499.649 707.633 501.982 702.7H513.882C516.215 707.633 518.482 712.633 520.682 717.7C522.882 722.767 525.082 728.1 527.282 733.7C529.549 739.3 531.849 745.233 534.182 751.5C536.582 757.767 539.082 764.6 541.682 772H528.082ZM507.682 716.1C506.149 719.633 504.382 723.933 502.382 729C500.449 734.067 498.415 739.567 496.282 745.5H519.082C516.949 739.567 514.882 734.033 512.882 728.9C510.882 723.767 509.149 719.5 507.682 716.1ZM564.323 772C559.323 761.2 554.489 749.9 549.823 738.1C545.223 726.3 540.923 714.5 536.923 702.7H550.823C552.423 707.367 554.056 712.133 555.723 717C557.389 721.867 559.056 726.667 560.723 731.4C562.389 736.067 564.056 740.6 565.723 745C567.389 749.4 569.023 753.433 570.623 757.1C572.156 753.433 573.756 749.433 575.423 745.1C577.089 740.7 578.756 736.133 580.423 731.4C582.156 726.667 583.856 721.867 585.523 717C587.189 712.133 588.789 707.367 590.323 702.7H603.823C599.756 714.5 595.423 726.3 590.823 738.1C586.223 749.9 581.423 761.2 576.423 772H564.323ZM612.334 702.7H624.934V772H612.334V702.7ZM687.784 772C685.517 768.2 682.984 764.133 680.184 759.8C677.384 755.4 674.484 751 671.484 746.6C668.484 742.133 665.417 737.833 662.284 733.7C659.217 729.5 656.284 725.733 653.484 722.4V772H641.084V702.7H651.384C654.05 705.5 656.917 708.833 659.984 712.7C663.05 716.5 666.117 720.467 669.184 724.6C672.317 728.733 675.317 732.9 678.184 737.1C681.117 741.233 683.717 745.1 685.984 748.7V702.7H698.484V772H687.784ZM747.057 712.2C739.924 712.2 734.457 714.433 730.657 718.9C726.924 723.3 725.057 729.433 725.057 737.3C725.057 741.033 725.49 744.467 726.357 747.6C727.29 750.667 728.624 753.3 730.357 755.5C732.157 757.7 734.357 759.433 736.957 760.7C739.624 761.9 742.724 762.5 746.257 762.5C748.457 762.5 750.357 762.433 751.957 762.3C753.557 762.1 754.824 761.867 755.757 761.6V736.7H768.357V770C766.624 770.667 763.69 771.4 759.557 772.2C755.424 773 750.657 773.4 745.257 773.4C740.257 773.4 735.69 772.6 731.557 771C727.424 769.4 723.89 767.067 720.957 764C718.09 760.933 715.857 757.167 714.257 752.7C712.657 748.233 711.857 743.1 711.857 737.3C711.857 731.5 712.724 726.367 714.457 721.9C716.257 717.433 718.69 713.667 721.757 710.6C724.824 707.467 728.424 705.1 732.557 703.5C736.69 701.9 741.09 701.1 745.757 701.1C748.957 701.1 751.79 701.333 754.257 701.8C756.79 702.2 758.957 702.667 760.757 703.2C762.557 703.733 764.024 704.3 765.157 704.9C766.357 705.5 767.19 705.933 767.657 706.2L763.857 716.5C761.857 715.3 759.357 714.3 756.357 713.5C753.424 712.633 750.324 712.2 747.057 712.2ZM799.269 762.6C803.802 762.6 807.102 761.833 809.169 760.3C811.235 758.767 812.269 756.6 812.269 753.8C812.269 752.133 811.902 750.7 811.169 749.5C810.502 748.3 809.502 747.233 808.169 746.3C806.902 745.3 805.335 744.4 803.469 743.6C801.602 742.733 799.469 741.9 797.069 741.1C794.669 740.233 792.335 739.3 790.069 738.3C787.869 737.233 785.902 735.933 784.169 734.4C782.502 732.867 781.135 731.033 780.069 728.9C779.069 726.767 778.569 724.2 778.569 721.2C778.569 714.933 780.735 710.033 785.069 706.5C789.402 702.9 795.302 701.1 802.769 701.1C807.102 701.1 810.935 701.6 814.269 702.6C817.669 703.533 820.335 704.567 822.269 705.7L818.369 715.9C816.102 714.633 813.602 713.667 810.869 713C808.202 712.333 805.435 712 802.569 712C799.169 712 796.502 712.7 794.569 714.1C792.702 715.5 791.769 717.467 791.769 720C791.769 721.533 792.069 722.867 792.669 724C793.335 725.067 794.235 726.033 795.369 726.9C796.569 727.767 797.935 728.567 799.469 729.3C801.069 730.033 802.802 730.733 804.669 731.4C807.935 732.6 810.835 733.833 813.369 735.1C815.969 736.3 818.135 737.767 819.869 739.5C821.669 741.167 823.035 743.167 823.969 745.5C824.902 747.767 825.369 750.533 825.369 753.8C825.369 760.067 823.135 764.933 818.669 768.4C814.269 771.8 807.802 773.5 799.269 773.5C796.402 773.5 793.769 773.3 791.369 772.9C789.035 772.567 786.935 772.133 785.069 771.6C783.269 771.067 781.702 770.533 780.369 770C779.035 769.4 777.969 768.867 777.169 768.4L780.869 758.1C782.669 759.1 785.102 760.1 788.169 761.1C791.235 762.1 794.935 762.6 799.269 762.6Z" fill="#4992CD"/>
</svg>
